<svg xmlns="http://www.w3.org/2000/svg" enable-background="new 0 0 66 66" viewBox="0 0 66 66" id="train-station"><path fill="#E8664A" d="M63.6,25.4H2.4c-0.6,0-1-0.7-0.7-1.2l4.6-7.6c0.1-0.2,0.4-0.4,0.7-0.4H59c0.3,0,0.5,0.1,0.7,0.4l4.6,7.6
		C64.6,24.8,64.2,25.4,63.6,25.4z"></path><path fill="#D95239" d="M64.3,24.2l-4.6-7.6c-0.1-0.2-0.4-0.4-0.7-0.4H7c-0.3,0-0.5,0.1-0.7,0.4l-4.6,7.6c-0.3,0.5,0.1,1.2,0.7,1.2
		h61.2C64.2,25.4,64.6,24.8,64.3,24.2z"></path><path fill="#E8664A" d="M64.3,24.2l-4.6-7.6c-0.1-0.2-0.4-0.4-0.7-0.4H33.1v9.2h30.5C64.2,25.4,64.6,24.8,64.3,24.2z"></path><rect width="14.9" height="10" x="25.5" y="15.4" fill="#D5B79F"></rect><rect width="7.5" height="10" x="25.5" y="15.4" fill="#C6A28A"></rect><rect width="55.3" height="19.2" x="5.4" y="25.4" fill="#D5B79F"></rect><rect width="27.7" height="19.2" x="33" y="25.4" fill="#C6A28A"></rect><path fill="#E8664A" d="M35.4,1.5c-0.1-0.2-0.4-0.4-0.6-0.4h-3.5c-0.3,0-0.5,0.2-0.6,0.4l-5.1,13.9h14.9L35.4,1.5z"></path><path fill="#D95239" d="M33,15.4h7.5L35.4,1.5c-0.1-0.2-0.4-0.4-0.6-0.4H33V15.4z"></path><path fill="#465C6A" d="M33,17.9c-1.7,0-3.2,1.4-3.2,3.2v4.4h6.3V21C36.2,19.3,34.7,17.9,33,17.9z"></path><path fill="#D95239" d="M40.7,13.4H25.3c-0.1,0-0.2,0.1-0.2,0.2v1.7c0,0.1,0.1,0.2,0.2,0.2h15.4c0.1,0,0.2-0.1,0.2-0.2v-1.7
		C40.9,13.5,40.8,13.4,40.7,13.4z"></path><path fill="#E8664A" d="M40.7,13.4H33v2h7.7c0.1,0,0.2-0.1,0.2-0.2v-1.7C40.9,13.5,40.8,13.4,40.7,13.4z"></path><path fill="#465C6A" d="M14.7,29.8L14.7,29.8c-2.2,0-4,1.8-4,4v10.8h8V33.8C18.7,31.6,17,29.8,14.7,29.8z"></path><path fill="#3B4C56" d="M33,29.8L33,29.8c-2.2,0-4,1.8-4,4v10.8h8V33.8C37,31.6,35.2,29.8,33,29.8z"></path><path fill="#465C6A" d="M33 29.8v14.8h4V33.8C37 31.6 35.2 29.8 33 29.8zM51.3 29.8L51.3 29.8c-2.2 0-4 1.8-4 4v10.8h8V33.8C55.3 31.6 53.5 29.8 51.3 29.8z"></path><rect width="64" height="6.8" x="1" y="44.6" fill="#E6E6E8"></rect><path fill="#C6A28A" d="M10.8,60.1v1.3c0,0.4,0.3,0.7,0.7,0.7h18.9c0.4,0,0.7-0.3,0.7-0.7v-1.3H10.8z"></path><path fill="#1E87B7" d="M31.1,46.2H10.7c-0.9,0-1.6,0.7-1.6,1.6v11.3c0,0.9,0.7,1.6,1.6,1.6h20.4c0.9,0,1.6-0.7,1.6-1.6V47.8
					C32.7,46.9,32,46.2,31.1,46.2z"></path><path fill="#1576AC" d="M31.1,46.2H21v14.5h10.1c0.9,0,1.6-0.7,1.6-1.6V47.8C32.7,46.9,32,46.2,31.1,46.2z"></path><path fill="#1E87B7" d="M9.1,56.2v2.9c0,0.9,0.7,1.6,1.6,1.6h20.4c0.9,0,1.6-0.7,1.6-1.6v-2.9H9.1z"></path><path fill="#1576AC" d="M21,56.2H9.1v2.9c0,0.9,0.7,1.6,1.6,1.6H21V56.2z"></path><path fill="#E6E6E8" d="M22.8,49.4h-3.7c-0.3,0-0.5,0.2-0.5,0.5v3.7c0,0.3,0.2,0.5,0.5,0.5h3.7c0.3,0,0.5-0.2,0.5-0.5V50
						C23.3,49.7,23.1,49.4,22.8,49.4z"></path><path fill="#FFF" d="M22.8,49.4H21v4.7h1.8c0.3,0,0.5-0.2,0.5-0.5V50C23.3,49.7,23.1,49.4,22.8,49.4z"></path><path fill="#E6E6E8" d="M16,49.4h-3.7c-0.3,0-0.5,0.2-0.5,0.5v3.7c0,0.3,0.2,0.5,0.5,0.5H16c0.3,0,0.5-0.2,0.5-0.5V50
						C16.5,49.7,16.3,49.4,16,49.4z"></path><path fill="#FFF" d="M29.5,49.4h-3.7c-0.3,0-0.5,0.2-0.5,0.5v3.7c0,0.3,0.2,0.5,0.5,0.5h3.7c0.3,0,0.5-0.2,0.5-0.5V50
						C30.1,49.7,29.8,49.4,29.5,49.4z"></path><g><circle cx="14.2" cy="62.9" r="1.7" fill="#465C6A"></circle><circle cx="14.2" cy="62.9" r=".9" fill="#3B4C56"></circle><g><circle cx="18" cy="62.9" r="1.7" fill="#465C6A"></circle><circle cx="18" cy="62.9" r=".9" fill="#3B4C56"></circle></g><g><path fill="#283A48" d="M18.1,63.3h-3.9c-0.2,0-0.4-0.2-0.4-0.4s0.2-0.4,0.4-0.4h3.9c0.2,0,0.4,0.2,0.4,0.4
								S18.3,63.3,18.1,63.3z"></path></g><g><circle cx="23.8" cy="63.1" r="1.7" fill="#283A48"></circle><circle cx="23.8" cy="63.1" r=".9" fill="#465C6A"></circle><g><circle cx="27.7" cy="63.1" r="1.7" fill="#283A48"></circle><circle cx="27.7" cy="63.1" r=".9" fill="#465C6A"></circle></g><g><path fill="#3B4C56" d="M27.7,63.5h-3.9c-0.2,0-0.4-0.2-0.4-0.4s0.2-0.4,0.4-0.4h3.9c0.2,0,0.4,0.2,0.4,0.4
								S28,63.5,27.7,63.5z"></path></g></g></g><g><path fill="#C6A28A" d="M35.3,60.1v1.3c0,0.4,0.3,0.7,0.7,0.7h18.9c0.4,0,0.7-0.3,0.7-0.7v-1.3H35.3z"></path><path fill="#1E87B7" d="M55.7,46.2H35.3c-0.9,0-1.6,0.7-1.6,1.6v11.3c0,0.9,0.7,1.6,1.6,1.6h20.4c0.9,0,1.6-0.7,1.6-1.6V47.8
					C57.3,46.9,56.5,46.2,55.7,46.2z"></path><path fill="#1576AC" d="M55.7,46.2H45.5v14.5h10.1c0.9,0,1.6-0.7,1.6-1.6V47.8C57.3,46.9,56.5,46.2,55.7,46.2z"></path><path fill="#1E87B7" d="M33.7,56.2v2.9c0,0.9,0.7,1.6,1.6,1.6h20.4c0.9,0,1.6-0.7,1.6-1.6v-2.9H33.7z"></path><path fill="#1576AC" d="M45.6,56.2H33.7v2.9c0,0.9,0.7,1.6,1.6,1.6h10.2V56.2z"></path><path fill="#E6E6E8" d="M47.3,49.4h-3.7c-0.3,0-0.5,0.2-0.5,0.5v3.7c0,0.3,0.2,0.5,0.5,0.5h3.7c0.3,0,0.5-0.2,0.5-0.5V50
						C47.9,49.7,47.6,49.4,47.3,49.4z"></path><path fill="#FFF" d="M47.3,49.4h-1.8v4.7h1.8c0.3,0,0.5-0.2,0.5-0.5V50C47.9,49.7,47.6,49.4,47.3,49.4z"></path><path fill="#E6E6E8" d="M40.5,49.4h-3.7c-0.3,0-0.5,0.2-0.5,0.5v3.7c0,0.3,0.2,0.5,0.5,0.5h3.7c0.3,0,0.5-0.2,0.5-0.5V50
						C41.1,49.7,40.8,49.4,40.5,49.4z"></path><path fill="#FFF" d="M54.1,49.4h-3.7c-0.3,0-0.5,0.2-0.5,0.5v3.7c0,0.3,0.2,0.5,0.5,0.5h3.7c0.3,0,0.5-0.2,0.5-0.5V50
						C54.6,49.7,54.4,49.4,54.1,49.4z"></path><g><circle cx="38.7" cy="62.9" r="1.7" fill="#465C6A"></circle><circle cx="38.7" cy="62.9" r=".9" fill="#3B4C56"></circle><g><circle cx="42.6" cy="62.9" r="1.7" fill="#465C6A"></circle><circle cx="42.6" cy="62.9" r=".9" fill="#3B4C56"></circle></g><g><path fill="#283A48" d="M42.6,63.3h-3.9c-0.2,0-0.4-0.2-0.4-0.4s0.2-0.4,0.4-0.4h3.9c0.2,0,0.4,0.2,0.4,0.4
								S42.8,63.3,42.6,63.3z"></path></g><g><circle cx="48.4" cy="63.1" r="1.7" fill="#283A48"></circle><circle cx="48.4" cy="63.1" r=".9" fill="#465C6A"></circle><g><circle cx="52.2" cy="63.1" r="1.7" fill="#283A48"></circle><circle cx="52.2" cy="63.1" r=".9" fill="#465C6A"></circle></g><g><path fill="#3B4C56" d="M52.3,63.5h-3.9c-0.2,0-0.4-0.2-0.4-0.4s0.2-0.4,0.4-0.4h3.9c0.2,0,0.4,0.2,0.4,0.4
								S52.5,63.5,52.3,63.5z"></path></g></g></g></g></svg>